<svg width="22" height="22" viewBox="0 0 22 22" fill="none" xmlns="http://www.w3.org/2000/svg">
<path d="M14 21.75H8C2.57 21.75 0.25 19.43 0.25 14V8C0.25 2.57 2.57 0.25 8 0.25H14C19.43 0.25 21.75 2.57 21.75 8V14C21.75 19.43 19.43 21.75 14 21.75ZM8 1.75C3.39 1.75 1.75 3.39 1.75 8V14C1.75 18.61 3.39 20.25 8 20.25H14C18.61 20.25 20.25 18.61 20.25 14V8C20.25 3.39 18.61 1.75 14 1.75H8Z" fill="#A9A5A5"/>
<path d="M6.32997 14.24C6.16997 14.24 6.00997 14.19 5.86997 14.08C5.79183 14.0203 5.72623 13.9457 5.6769 13.8606C5.62758 13.7755 5.5955 13.6815 5.5825 13.584C5.5695 13.4865 5.57583 13.3874 5.60113 13.2923C5.62644 13.1973 5.67022 13.1081 5.72997 13.03L8.10997 9.94001C8.39997 9.57001 8.80997 9.33001 9.27997 9.27001C9.73997 9.21001 10.21 9.34001 10.58 9.63001L12.41 11.07C12.48 11.13 12.55 11.13 12.6 11.12C12.64 11.12 12.71 11.1 12.77 11.02L15.08 8.04001C15.1397 7.96162 15.2145 7.89596 15.3 7.84687C15.3854 7.79778 15.4798 7.76625 15.5776 7.75414C15.6754 7.74203 15.7747 7.74958 15.8695 7.77635C15.9644 7.80311 16.0529 7.84856 16.13 7.91001C16.46 8.16001 16.52 8.63001 16.26 8.96001L13.95 11.94C13.66 12.31 13.25 12.55 12.78 12.6C12.31 12.66 11.85 12.53 11.48 12.24L9.64997 10.8C9.62434 10.7775 9.59384 10.7613 9.56086 10.7526C9.52789 10.7439 9.49335 10.7431 9.45997 10.75C9.41997 10.75 9.34997 10.77 9.28997 10.85L6.90997 13.94C6.77997 14.14 6.55997 14.24 6.32997 14.24Z" fill="#5D5959"/>
</svg>
