<svg width="22" height="22" viewBox="0 0 22 22" fill="none" xmlns="http://www.w3.org/2000/svg">
<path d="M14.0056 21.27H13.8756C9.43559 21.27 7.29559 19.52 6.92559 15.6C6.88559 15.19 7.18559 14.82 7.60559 14.78C8.00559 14.74 8.38559 15.05 8.42559 15.46C8.71559 18.6 10.1956 19.77 13.8856 19.77H14.0156C18.0856 19.77 19.5256 18.33 19.5256 14.26V7.73998C19.5256 3.66998 18.0856 2.22998 14.0156 2.22998H13.8856C10.1756 2.22998 8.69559 3.41998 8.42559 6.61998C8.37559 7.02998 8.02559 7.33998 7.60559 7.29998C7.50703 7.29228 7.41097 7.2652 7.3229 7.22029C7.23483 7.17537 7.1565 7.11352 7.09239 7.03826C7.02829 6.96301 6.97967 6.87583 6.94933 6.78175C6.91899 6.68766 6.90752 6.58851 6.91559 6.48998C7.25559 2.50998 9.40559 0.72998 13.8756 0.72998H14.0056C18.9156 0.72998 21.0156 2.82998 21.0156 7.73998V14.26C21.0156 19.17 18.9156 21.27 14.0056 21.27Z" fill="#FB6B63"/>
<path d="M13.7655 11.75H2.3855C1.9755 11.75 1.6355 11.41 1.6355 11C1.6355 10.59 1.9755 10.25 2.3855 10.25H13.7655C14.1755 10.25 14.5155 10.59 14.5155 11C14.5155 11.41 14.1755 11.75 13.7655 11.75Z" fill="#FB6B63"/>
<path d="M4.61552 15.1001C4.42552 15.1001 4.23552 15.0301 4.08552 14.8801L0.735524 11.5301C0.596044 11.389 0.517822 11.1985 0.517822 11.0001C0.517822 10.8017 0.596044 10.6112 0.735524 10.4701L4.08552 7.12009C4.37552 6.83009 4.85552 6.83009 5.14552 7.12009C5.43552 7.41009 5.43552 7.89009 5.14552 8.18009L2.32552 11.0001L5.14552 13.8201C5.43552 14.1101 5.43552 14.5901 5.14552 14.8801C5.00552 15.0301 4.80552 15.1001 4.61552 15.1001Z" fill="#FB6B63"/>
</svg>
