<svg width="22" height="22" viewBox="0 0 22 22" fill="none" xmlns="http://www.w3.org/2000/svg">
<path d="M11 2.35298C12.7102 2.3531 14.3819 2.86035 15.8039 3.81057C17.2258 4.76079 18.334 6.11132 18.9884 7.69137C19.6428 9.27141 19.8139 11.01 19.4802 12.6873C19.1465 14.3646 18.3229 15.9054 17.1135 17.1146C15.9042 18.3239 14.3634 19.1473 12.6861 19.4809C11.0088 19.8145 9.27017 19.6432 7.69017 18.9888C6.11017 18.3343 4.75971 17.226 3.80959 15.804C2.85947 14.382 2.35233 12.7102 2.35233 11C2.35482 8.70734 3.26673 6.50929 4.88796 4.88818C6.50919 3.26707 8.70732 2.3553 11 2.35298ZM11 0.9C9.00241 0.9 7.0497 1.49238 5.38876 2.60218C3.72782 3.71198 2.43327 5.28938 1.66882 7.13491C0.904374 8.98044 0.704363 11.0112 1.09407 12.9704C1.48379 14.9296 2.44569 16.7293 3.8582 18.1418C5.27071 19.5543 7.07039 20.5162 9.0296 20.9059C10.9888 21.2956 13.0196 21.0956 14.8651 20.3312C16.7107 19.5667 18.288 18.2722 19.3979 16.6113C20.5077 14.9503 21.1 12.9976 21.1 11C21.1 8.32133 20.0359 5.75234 18.1418 3.85823C16.2477 1.96411 13.6787 0.9 11 0.9Z" fill="#B6B6B6" stroke="#B6B6B6" stroke-width="0.2"/>
<path d="M9.88766 12.4515C9.8893 12.1132 10.0019 11.7848 10.2081 11.5163C10.4855 11.1595 10.8021 10.8348 11.152 10.5485C11.4676 10.2781 11.7569 9.9785 12.016 9.65373C12.1784 9.42528 12.2626 9.1506 12.256 8.87057C12.2602 8.69902 12.2295 8.52842 12.166 8.36895C12.1025 8.20949 12.0073 8.06447 11.8863 7.94258C11.7652 7.8207 11.6208 7.72443 11.4615 7.65961C11.3023 7.59478 11.1316 7.56273 10.9597 7.56532C10.6165 7.56199 10.2848 7.68865 10.0315 7.91972C9.9485 7.99937 9.8718 8.08476 9.80192 8.17511C9.51768 8.54258 9.02982 8.78768 8.60387 8.60223C8.25626 8.45089 8.06208 8.06334 8.22926 7.72306C8.44134 7.29138 8.74717 6.90898 9.1276 6.60531C9.67357 6.19639 10.342 5.98346 11.0244 6.001C11.5436 5.99538 12.0566 6.11419 12.5202 6.34751C12.9629 6.56948 13.3363 6.908 13.6001 7.32645C13.868 7.75113 14.0068 8.24419 13.9997 8.74593C14.0057 9.19792 13.8837 9.64239 13.6478 10.0283C13.3504 10.4827 12.9897 10.8925 12.5765 11.2455C12.2607 11.5124 11.9637 11.8006 11.6876 12.1082C11.5293 12.2891 11.4414 12.5207 11.4397 12.7609C11.4466 12.9829 11.286 13.1962 11.0639 13.1962H10.5316C10.2469 13.1962 9.97368 13.0353 9.91971 12.7558C9.90039 12.6558 9.88962 12.554 9.88766 12.4515ZM10.8478 16.9996C10.6835 17.0036 10.5202 16.9743 10.3676 16.9134C10.215 16.8524 10.0764 16.7613 9.96023 16.6453C9.84215 16.5302 9.74919 16.392 9.68718 16.2394C9.62516 16.0868 9.59544 15.923 9.59987 15.7584C9.59598 15.5925 9.6259 15.4276 9.68785 15.2737C9.74981 15.1198 9.84248 14.98 9.96023 14.863C10.0752 14.7448 10.2134 14.6517 10.3661 14.5892C10.5188 14.5268 10.6828 14.4964 10.8478 14.5001C11.0138 14.4964 11.1788 14.5266 11.3327 14.5888C11.4866 14.6509 11.6262 14.7436 11.743 14.8614C11.8598 14.9791 11.9513 15.1194 12.012 15.2736C12.0726 15.4279 12.1011 15.5928 12.0958 15.7584C12.1003 15.9229 12.0707 16.0866 12.0089 16.2392C11.9471 16.3918 11.8545 16.5301 11.7367 16.6453C11.6202 16.7612 11.4813 16.8523 11.3286 16.9132C11.1758 16.9741 11.0123 17.0035 10.8478 16.9996Z" fill="#B6B6B6"/>
<path d="M9.88766 12.4515C9.8893 12.1132 10.0019 11.7848 10.2081 11.5163C10.4855 11.1595 10.8021 10.8348 11.152 10.5485C11.4676 10.2781 11.7569 9.9785 12.016 9.65373C12.1784 9.42528 12.2626 9.1506 12.256 8.87057C12.2602 8.69902 12.2295 8.52842 12.166 8.36895C12.1025 8.20949 12.0073 8.06447 11.8863 7.94258C11.7652 7.8207 11.6208 7.72443 11.4615 7.65961C11.3023 7.59478 11.1316 7.56273 10.9597 7.56532C10.6165 7.56199 10.2848 7.68865 10.0315 7.91972C9.9485 7.99937 9.8718 8.08476 9.80192 8.17511C9.51768 8.54258 9.02982 8.78768 8.60387 8.60223C8.25626 8.45089 8.06208 8.06334 8.22926 7.72306C8.44134 7.29138 8.74717 6.90898 9.1276 6.60531C9.67357 6.19639 10.342 5.98346 11.0244 6.001C11.5436 5.99538 12.0566 6.11419 12.5202 6.34751C12.9629 6.56948 13.3363 6.908 13.6001 7.32645C13.868 7.75113 14.0068 8.24419 13.9997 8.74593C14.0057 9.19792 13.8837 9.64239 13.6478 10.0283C13.3504 10.4827 12.9897 10.8925 12.5765 11.2455C12.2607 11.5124 11.9637 11.8006 11.6876 12.1082C11.5293 12.2891 11.4414 12.5207 11.4397 12.7609C11.4466 12.9829 11.286 13.1962 11.0639 13.1962H10.5316C10.2469 13.1962 9.97368 13.0353 9.91971 12.7558C9.90039 12.6558 9.88962 12.554 9.88766 12.4515ZM10.8478 16.9996C10.6835 17.0036 10.5202 16.9743 10.3676 16.9134C10.215 16.8524 10.0764 16.7613 9.96023 16.6453C9.84215 16.5302 9.74919 16.392 9.68718 16.2394C9.62516 16.0868 9.59544 15.923 9.59987 15.7584C9.59598 15.5925 9.6259 15.4276 9.68785 15.2737C9.74981 15.1198 9.84248 14.98 9.96023 14.863C10.0752 14.7448 10.2134 14.6517 10.3661 14.5892C10.5188 14.5268 10.6828 14.4964 10.8478 14.5001C11.0138 14.4964 11.1788 14.5266 11.3327 14.5888C11.4866 14.6509 11.6262 14.7436 11.743 14.8614C11.8598 14.9791 11.9513 15.1194 12.012 15.2736C12.0726 15.4279 12.1011 15.5928 12.0958 15.7584C12.1003 15.9229 12.0707 16.0866 12.0089 16.2392C11.9471 16.3918 11.8545 16.5301 11.7367 16.6453C11.6202 16.7612 11.4813 16.8523 11.3286 16.9132C11.1758 16.9741 11.0123 17.0035 10.8478 16.9996Z" stroke="white"/>
</svg>
