<svg width="117" height="23" viewBox="0 0 117 23" fill="none" xmlns="http://www.w3.org/2000/svg">
<path d="M10.5979 17.7118L13.2911 11.4367L9.77503 3.36524C8.77758 1.06271 10.8972 0.151816 11.7699 0.151816V0H0V0.151816C0.872771 0.151816 2.71806 1.08801 3.79032 3.36524L10.5979 17.7118ZM10.5979 17.7118H10.7476L14.4381 8.85589C15.9592 5.18702 17.9541 0.151816 20.4478 0.151816V0H10.4733V0.151816C12.9669 0.151816 15.8096 5.18702 14.2885 8.85589L10.5979 17.7118ZM28.2528 0H18.2783V0.151816C20.7719 0.151816 21.3704 5.18702 19.8493 8.85589L16.1587 17.7118H16.3083L19.9989 8.85589C21.52 5.18702 25.7592 0.151816 28.2528 0.151816V0ZM15.7348 5.56656L13.0916 11.8922L16.1587 17.7118L18.8519 11.4367L15.7348 5.56656Z" fill="#0D4FDC"/>
<path d="M31.7546 17.7118L34.4478 13.2332L30.2335 7.46425C29.0615 5.87019 31.3557 5.16172 32.2284 5.16172V5.06051H20.4585V5.16172C21.3313 5.16172 23.0768 5.87019 24.2488 7.46425L31.7546 17.7118ZM23.0269 23C27.1664 23 29.0366 22.6458 30.7821 19.6348L35.5948 11.3861C37.1159 8.77998 41.3551 5.16172 43.8488 5.16172V5.06051H33.8742V5.16172C36.3679 5.16172 36.9663 8.77998 35.4452 11.3861L31.6798 17.8383C30.8071 19.3311 27.2162 19.5336 24.6229 17.9901H24.4732L23.0269 23Z" fill="#0D4FDC"/>
<path d="M50.2893 17.7118L52.9825 13.2332L48.7682 7.46425C47.5962 5.87019 49.8904 5.16172 50.7631 5.16172V5.06051H38.9932V5.16172C39.866 5.16172 41.6115 5.87019 42.7835 7.46425L50.2893 17.7118ZM50.2893 17.7118H50.4389L54.1295 11.3861C55.6506 8.75468 59.8898 5.16172 62.3834 5.16172V5.06051H52.4089V5.16172C54.9025 5.16172 55.501 8.75468 53.9799 11.3861L50.2893 17.7118Z" fill="#0D4FDC"/>
<path d="M60.302 11.3608C60.302 16.1177 64.5163 17.9648 68.93 17.9648C72.2465 17.9648 74.017 16.9274 75.7875 15.1309L75.7127 15.0044C73.5183 16.725 68.7056 15.8141 66.2119 12.6513C63.843 9.64026 63.2445 6.60396 64.9402 5.87019C66.6359 5.16172 69.4537 8.70407 70.3264 10.2222L65.9626 12.6766L66.0623 12.8031L75.1391 9.08361C74.5656 7.36304 71.7727 4.80748 67.7331 4.80748C64.3417 4.80748 60.302 6.60396 60.302 11.3608Z" fill="#0D4FDC"/>
<path d="M76.0343 17.7118H87.2557V17.56C86.3829 17.56 84.1386 16.8768 84.1386 14.3465V4.80748H83.989C83.5651 5.31353 79.5503 6.07261 76.0343 6.07261V6.22442C76.9071 6.22442 79.1514 6.90759 79.1514 9.43784V14.3465C79.1514 16.8768 76.9071 17.56 76.0343 17.56V17.7118ZM84.0638 8.52695C84.4628 8.0462 88.8017 6.14852 89.8241 9.9692L93.6892 7.26183C93.4399 6.45215 92.193 4.80748 89.7493 4.80748C86.5325 4.80748 84.6124 7.64136 84.0638 8.37514V8.52695Z" fill="#0D4FDC"/>
<path d="M93.9339 17.7118H105.155V17.56C104.282 17.56 102.038 16.8768 102.038 14.3465V4.80748H101.889C101.465 5.31353 97.4499 6.07261 93.9339 6.07261V6.22442C94.8067 6.22442 97.0509 6.90759 97.0509 9.43784V14.3465C97.0509 16.8768 94.8067 17.56 93.9339 17.56V17.7118ZM105.779 17.7118H117V17.56C116.127 17.56 114.656 16.725 113.883 14.3465L111.963 8.45105C111.439 6.83168 111.115 4.80748 108.048 4.80748C104.432 4.80748 102.512 7.64136 101.963 8.37514V8.52695C102.362 8.0462 106.701 6.14852 107.724 9.9692L108.896 14.3465C109.544 16.8009 106.651 17.56 105.779 17.56V17.7118Z" fill="#0D4FDC"/>
</svg>
