<svg width="136" height="27" viewBox="0 0 136 27" fill="none" xmlns="http://www.w3.org/2000/svg">
<path d="M12.319 20.7921L15.4494 13.4257L11.3624 3.9505C10.203 1.24752 12.6668 0.178219 13.6813 0.178219V0H0V0.178219C1.0145 0.178219 3.15945 1.27723 4.40584 3.9505L12.319 20.7921ZM12.319 20.7921H12.4929L16.7828 10.396C18.5509 6.08911 20.8698 0.178219 23.7684 0.178219V0H12.174V0.178219C15.0726 0.178219 18.377 6.08911 16.6089 10.396L12.319 20.7921ZM32.8409 0H21.2466V0.178219C24.1452 0.178219 24.8408 6.08911 23.0727 10.396L18.7828 20.7921H18.9567L23.2466 10.396C25.0147 6.08911 29.9423 0.178219 32.8409 0.178219V0ZM18.29 6.53465L15.2175 13.9604L18.7828 20.7921L21.9133 13.4257L18.29 6.53465Z" fill="#0D4FDC"/>
<path d="M36.9114 20.7921L40.0418 15.5347L35.1432 8.76238C33.7809 6.89109 36.4476 6.05941 37.4621 6.05941V5.9406H23.7808V6.05941C24.7953 6.05941 26.8243 6.89109 28.1866 8.76238L36.9114 20.7921ZM26.7663 27C31.578 27 33.7519 26.5842 35.7809 23.0495L41.3752 13.3663C43.1433 10.3069 48.0709 6.05941 50.9695 6.05941V5.9406H39.3752V6.05941C42.2737 6.05941 42.9694 10.3069 41.2013 13.3663L36.8244 20.9406C35.8099 22.6931 31.636 22.9307 28.6214 21.1188H28.4475L26.7663 27Z" fill="#0D4FDC"/>
<path d="M58.456 20.7921L61.5864 15.5347L56.6878 8.76238C55.3255 6.89109 57.9922 6.05941 59.0067 6.05941V5.9406H45.3254V6.05941C46.3399 6.05941 48.3689 6.89109 49.7312 8.76238L58.456 20.7921ZM58.456 20.7921H58.6299L62.9198 13.3663C64.6879 10.2772 69.6155 6.05941 72.5141 6.05941V5.9406H60.9198V6.05941C63.8183 6.05941 64.514 10.2772 62.7459 13.3663L58.456 20.7921Z" fill="#0D4FDC"/>
<path d="M70.0947 13.3366C70.0947 18.9208 74.9933 21.0891 80.1238 21.0891C83.9789 21.0891 86.0369 19.8713 88.0949 17.7624L88.0079 17.6139C85.4571 19.6337 79.8629 18.5644 76.9643 14.8515C74.2107 11.3168 73.515 7.75248 75.486 6.89109C77.4571 6.05941 80.7325 10.2178 81.747 12L76.6745 14.8812L76.7904 15.0297L87.3412 10.6634C86.6746 8.64357 83.4281 5.64356 78.7324 5.64356C74.7904 5.64356 70.0947 7.75248 70.0947 13.3366Z" fill="#0D4FDC"/>
<path d="M88.3818 20.7921H101.425V20.6139C100.411 20.6139 97.8022 19.8119 97.8022 16.8416V5.64356H97.6282C97.1355 6.23762 92.4688 7.12871 88.3818 7.12871V7.30693C89.3963 7.30693 92.005 8.10891 92.005 11.0792V16.8416C92.005 19.8119 89.3963 20.6139 88.3818 20.6139V20.7921ZM97.7152 10.0099C98.179 9.44554 103.222 7.21782 104.411 11.703L108.904 8.52475C108.614 7.57426 107.165 5.64356 104.324 5.64356C100.585 5.64356 98.3529 8.9703 97.7152 9.83168V10.0099Z" fill="#0D4FDC"/>
<path d="M109.188 20.7921H122.232V20.6139C121.217 20.6139 118.609 19.8119 118.609 16.8416V5.64356H118.435C117.942 6.23762 113.275 7.12871 109.188 7.12871V7.30693C110.203 7.30693 112.811 8.10891 112.811 11.0792V16.8416C112.811 19.8119 110.203 20.6139 109.188 20.6139V20.7921ZM122.956 20.7921H136V20.6139C134.985 20.6139 133.275 19.6337 132.377 16.8416L130.145 9.92079C129.536 8.0198 129.159 5.64356 125.594 5.64356C121.391 5.64356 119.159 8.9703 118.522 9.83168V10.0099C118.985 9.44554 124.029 7.21782 125.217 11.703L126.58 16.8416C127.333 19.7228 123.971 20.6139 122.956 20.6139V20.7921Z" fill="#0D4FDC"/>
</svg>
